<?xml version="1.0" standalone="no"?>
<!DOCTYPE svg PUBLIC "-//W3C//DTD SVG 20010904//EN"
 "http://www.w3.org/TR/2001/REC-SVG-20010904/DTD/svg10.dtd">
<svg version="1.0" xmlns="http://www.w3.org/2000/svg"
 width="736.000000pt" height="736.000000pt" viewBox="0 0 736.000000 736.000000"
 preserveAspectRatio="xMidYMid meet">

<g transform="translate(0.000000,736.000000) scale(0.100000,-0.100000)"
fill="#000000" stroke="none">
<path d="M3530 6934 c-663 -38 -1311 -286 -1840 -705 -135 -106 -403 -374
-509 -509 -384 -484 -615 -1044 -692 -1675 -16 -129 -16 -581 0 -710 77 -631
308 -1191 692 -1675 103 -130 372 -401 500 -503 488 -388 1050 -621 1684 -698
129 -16 581 -16 710 0 634 77 1196 311 1684 698 124 99 395 370 494 494 341
430 573 941 666 1469 36 208 44 312 44 570 0 258 -8 362 -44 570 -93 528 -325
1039 -666 1469 -99 124 -370 395 -494 494 -480 381 -1042 618 -1647 693 -114
14 -463 25 -582 18z m593 -956 c15 -6 40 -8 56 -5 22 5 36 -1 62 -23 19 -16
41 -29 49 -30 25 0 60 -30 60 -49 0 -10 6 -24 14 -30 8 -7 17 -39 21 -72 4
-32 13 -62 19 -67 11 -6 25 -45 43 -120 4 -15 -2 -34 -16 -52 -23 -32 -28 -55
-8 -47 6 2 38 10 70 17 31 7 57 16 58 19 0 3 2 40 4 81 4 104 3 100 20 100 8
0 15 6 15 13 0 7 6 19 13 25 6 7 17 36 22 65 8 42 14 52 30 52 10 0 25 10 31
23 15 31 54 57 78 53 11 -1 27 7 36 19 16 21 18 22 49 6 26 -14 39 -15 65 -6
24 8 52 8 96 1 35 -6 66 -9 69 -6 4 2 33 -5 66 -16 32 -10 69 -19 81 -19 14 0
30 -10 39 -24 9 -13 29 -29 44 -36 37 -15 67 -48 75 -82 3 -15 15 -29 25 -33
10 -3 22 -16 26 -28 9 -29 10 -145 2 -154 -19 -18 -4 -42 35 -58 23 -9 48 -24
55 -33 12 -16 15 -15 34 8 12 14 27 23 33 20 6 -2 79 -4 161 -5 l151 0 51 -33
c64 -41 68 -52 89 -247 19 -180 25 -648 8 -680 -8 -16 -7 -43 3 -104 10 -57
11 -87 4 -94 -6 -6 -8 -29 -4 -52 4 -29 0 -52 -12 -74 -12 -24 -14 -36 -6 -44
16 -16 14 -123 -3 -140 -8 -8 -11 -19 -6 -26 4 -7 6 -42 4 -78 -2 -36 0 -72 5
-80 4 -8 1 -38 -6 -66 -8 -29 -12 -76 -10 -107 3 -30 0 -74 -5 -98 -8 -31 -8
-46 0 -54 8 -8 8 -15 1 -24 -6 -7 -12 -42 -14 -78 -1 -35 -6 -70 -11 -77 -4
-8 -9 -91 -10 -186 -2 -95 -5 -176 -8 -181 -2 -4 -1 -25 4 -46 4 -21 4 -51 -1
-68 -4 -17 -5 -62 0 -102 7 -66 7 -129 1 -398 -1 -58 0 -111 4 -116 3 -6 2
-13 -4 -17 -6 -4 -7 -31 -4 -68 9 -91 7 -118 -12 -132 -15 -10 -18 -32 -19
-131 -1 -110 -4 -125 -33 -194 l-32 -75 -70 -28 c-38 -16 -96 -32 -127 -37
-32 -4 -71 -13 -87 -19 -17 -7 -33 -8 -40 -3 -6 5 -39 12 -73 15 -59 5 -62 4
-67 -19 l-7 -25 -34 37 c-37 39 -68 41 -58 5 3 -12 1 -21 -6 -21 -10 0 -21 8
-73 56 -22 21 -56 10 -68 -22 -8 -21 -13 -22 -35 -14 -34 13 -35 13 -35 -5 0
-16 -3 -15 -57 13 -31 16 -60 15 -67 -3 -3 -8 -15 -15 -26 -15 -11 0 -20 -5
-20 -11 0 -7 -10 -5 -25 5 -29 19 -66 21 -83 4 -10 -10 -18 -9 -40 5 -19 11
-32 13 -39 6 -11 -11 -43 -2 -43 12 0 5 -8 9 -18 9 -10 0 -29 11 -42 25 -28
30 -40 32 -40 7 0 -23 -94 -54 -122 -41 -10 5 -26 13 -37 18 -12 6 -22 6 -29
-1 -8 -8 -14 -5 -20 12 -6 16 -11 20 -16 11 -4 -6 -5 -19 -2 -28 5 -13 0 -14
-28 -9 -20 4 -37 2 -41 -4 -4 -7 -17 -3 -35 10 -19 14 -44 20 -79 20 -42 0
-53 4 -66 24 -16 24 -16 24 -58 7 -28 -11 -67 -17 -114 -17 -52 1 -73 -3 -73
-11 0 -18 -19 -16 -26 1 -8 20 -58 30 -82 17 -15 -8 -21 -7 -26 4 -3 9 -19 15
-40 15 -21 0 -36 6 -40 15 -7 19 -26 19 -26 0 0 -8 -9 -15 -20 -15 -19 0 -24
10 -21 37 2 13 -41 5 -51 -11 -4 -5 -40 -10 -80 -11 -40 0 -77 -3 -83 -6 -18
-10 -66 -9 -87 2 -16 8 -22 7 -34 -8 -11 -15 -15 -16 -23 -4 -5 7 -15 11 -22
9 -8 -3 -25 -1 -39 5 -14 5 -46 11 -72 14 -38 3 -48 1 -48 -12 0 -23 -28 -18
-35 6 -6 19 -13 21 -64 17 -56 -5 -91 3 -123 30 -14 11 -21 12 -32 3 -7 -6
-21 -9 -30 -5 -9 3 -16 1 -16 -5 0 -7 -9 -9 -25 -5 -14 3 -31 2 -38 -4 -21
-18 -103 -20 -92 -2 4 6 -6 7 -25 4 -25 -6 -29 -4 -24 10 3 9 15 16 25 16 22
0 24 11 7 28 -16 16 -38 15 -38 -2 0 -18 -57 -48 -66 -35 -3 6 -12 2 -20 -8
-13 -17 -15 -17 -24 -1 -8 13 -22 17 -50 16 -31 -1 -43 4 -63 27 l-24 29 -28
-29 c-25 -28 -28 -29 -39 -12 -14 18 -36 23 -36 9 0 -10 -66 -9 -76 1 -4 4
-17 7 -29 7 -13 0 -28 6 -34 14 -9 10 -21 12 -48 6 -30 -7 -39 -5 -60 16 -26
26 -53 26 -53 0 0 -13 -19 -15 -117 -13 -128 3 -163 14 -201 62 -28 35 -56
159 -42 185 8 15 6 23 -11 38 l-20 20 20 14 c17 12 20 22 16 49 -3 19 -11 99
-17 177 -10 130 -10 147 6 173 12 20 15 39 11 63 -5 27 -3 36 11 44 17 9 17
11 0 37 -25 38 -20 220 7 239 23 18 22 28 -4 24 -19 -3 -21 2 -21 52 -1 89 1
100 17 100 8 0 15 2 15 4 0 2 3 11 6 20 4 11 1 16 -10 16 -10 0 -16 9 -16 24
0 13 -6 26 -12 29 -9 3 -4 13 14 30 16 14 28 30 28 36 0 13 -29 41 -42 41 -6
0 -4 8 5 18 11 12 13 22 6 35 -16 28 -7 82 13 82 29 0 41 21 34 59 -4 20 -11
36 -17 36 -11 0 -28 41 -33 81 -1 16 -6 32 -9 36 -10 9 -9 53 1 53 5 0 9 21
10 47 0 35 6 52 20 64 21 16 21 16 -4 35 -23 17 -25 22 -16 61 6 24 6 78 1
133 -5 51 -6 96 -4 101 3 4 0 11 -5 14 -14 9 -3 64 18 88 12 14 13 22 4 42
-10 21 -9 27 3 31 11 5 15 22 15 64 0 51 -3 61 -26 78 -20 14 -29 32 -35 68
-12 76 -10 138 6 170 11 23 12 42 5 84 -7 44 -6 57 6 66 8 7 14 16 12 20 -1 5
1 30 6 57 5 31 12 47 22 47 18 0 18 15 -1 34 -8 8 -15 24 -15 35 0 12 -9 26
-20 33 -18 11 -18 14 -3 30 12 14 13 21 4 32 -10 11 -9 16 5 24 16 9 16 14 5
52 -7 23 -11 73 -10 111 1 38 -1 72 -4 76 -4 3 1 15 10 25 10 11 18 29 19 41
4 54 18 89 43 105 47 32 81 43 101 32 10 -6 21 -6 24 -1 3 4 28 11 56 15 77
10 83 14 75 52 -5 27 -2 35 15 44 24 13 45 52 54 101 3 20 15 44 26 54 11 10
20 23 20 30 0 19 34 44 68 51 22 5 32 12 32 25 0 23 64 43 90 29 12 -7 21 -5
29 3 18 23 197 15 252 -10 24 -12 56 -24 72 -27 15 -4 39 -16 54 -29 82 -69
93 -81 93 -101 0 -11 9 -27 20 -34 11 -6 17 -18 14 -26 -3 -8 4 -36 15 -62 12
-25 21 -59 21 -75 0 -37 14 -44 62 -28 43 14 62 39 53 69 -4 14 -2 20 9 20 10
0 16 9 16 25 0 15 6 25 14 25 8 0 17 8 20 18 4 9 20 32 36 51 17 18 30 40 30
47 0 7 9 15 20 19 11 3 29 19 40 36 12 16 27 29 34 29 8 0 19 7 26 15 7 8 23
15 35 15 12 0 28 6 34 14 16 19 183 13 213 -9 13 -8 34 -15 49 -15 33 0 89
-19 89 -31 0 -5 6 -9 14 -9 15 0 57 -38 96 -87 29 -37 40 -41 40 -14 0 29 11
51 25 51 7 0 11 9 8 23 -3 16 2 25 19 32 19 9 39 35 51 68 1 5 17 10 35 12 18
1 38 10 45 19 24 33 197 42 270 14z"/>
<path d="M4005 5883 c-16 -3 -34 -9 -39 -14 -6 -5 -16 -9 -22 -9 -19 0 -74
-59 -74 -80 0 -10 -7 -25 -15 -33 -8 -8 -15 -28 -15 -43 -2 -86 -6 -123 -12
-130 -5 -4 -8 -14 -8 -23 0 -17 22 -21 117 -20 28 0 54 -5 58 -10 3 -7 27 -8
58 -5 92 10 182 10 199 0 27 -16 34 2 14 34 -9 17 -14 35 -11 40 4 6 1 18 -6
26 -9 11 -9 18 -1 26 6 6 7 17 2 27 -4 9 -16 33 -26 54 -11 22 -27 45 -37 52
-15 10 -16 17 -8 32 15 29 -12 63 -49 63 -16 0 -32 5 -35 10 -6 10 -33 11 -90
3z"/>
<path d="M2275 5830 c-4 -6 -13 -9 -20 -6 -26 9 -92 -32 -103 -64 -6 -17 -16
-29 -23 -28 -6 2 -15 -8 -19 -22 -4 -14 -22 -51 -39 -84 -43 -80 -42 -84 26
-80 38 2 65 -2 80 -11 26 -17 69 -20 78 -5 10 15 37 12 77 -10 33 -18 43 -19
90 -8 29 6 60 17 68 23 8 6 28 12 45 13 40 3 49 15 25 37 -11 10 -20 24 -20
32 0 7 -7 16 -15 19 -10 4 -13 14 -9 29 3 13 1 26 -5 29 -6 4 -11 16 -11 27 0
11 -8 22 -17 26 -10 3 -31 18 -46 32 -16 14 -49 31 -75 37 -26 6 -54 14 -63
18 -10 4 -20 2 -24 -4z"/>
<path d="M3173 5796 c-33 -22 -83 -87 -104 -133 -7 -18 -16 -33 -19 -33 -10 0
-5 -79 5 -89 6 -5 27 -12 47 -15 29 -5 39 -3 47 11 9 17 12 16 49 -5 21 -12
41 -20 43 -18 10 11 110 15 133 7 16 -7 27 -7 31 -1 10 16 45 11 45 -5 0 -20
44 -20 60 0 9 11 9 21 -1 45 -8 16 -17 30 -21 30 -5 0 -8 7 -8 15 0 8 6 15 14
15 8 0 18 5 21 11 8 11 -42 89 -62 96 -7 3 -13 11 -13 18 0 7 -26 21 -57 31
-32 10 -60 21 -63 25 -3 4 -30 9 -62 10 -43 3 -63 -1 -85 -15z"/>
<path d="M4920 5801 c-8 -6 -24 -11 -36 -11 -28 0 -122 -91 -130 -127 -3 -15
-15 -48 -26 -72 -24 -55 -21 -97 7 -93 64 10 84 8 124 -10 42 -20 45 -20 73
-4 27 17 30 17 48 1 13 -12 26 -14 42 -9 13 4 68 8 122 8 l100 1 9 34 c5 20 5
37 -1 43 -10 10 2 91 18 120 14 26 13 28 -16 28 -24 0 -26 3 -20 28 4 15 8 32
9 37 1 6 -2 12 -8 15 -5 3 -11 -5 -13 -17 -3 -22 -32 -33 -32 -13 0 30 -234
65 -270 41z"/>
<path d="M5285 5520 c3 -5 11 -10 16 -10 6 0 7 5 4 10 -3 6 -11 10 -16 10 -6
0 -7 -4 -4 -10z"/>
<path d="M2485 5375 c-32 -17 -45 -20 -63 -11 -17 7 -29 7 -43 -2 -10 -7 -26
-12 -34 -12 -8 0 -24 -6 -36 -12 -17 -11 -22 -10 -33 5 -15 19 -66 23 -84 5
-9 -9 -13 -7 -18 5 -4 11 -18 17 -39 17 -19 0 -37 5 -40 10 -10 17 -25 11 -25
-10 0 -12 -5 -17 -14 -14 -10 4 -15 -9 -20 -47 -6 -44 -4 -55 13 -73 14 -15
17 -26 11 -36 -14 -21 -12 -30 5 -30 11 0 14 -7 9 -25 -5 -20 -2 -25 12 -25
10 0 36 -20 60 -45 23 -25 50 -45 61 -45 15 0 25 12 37 45 l18 45 61 0 c79 -1
101 -13 149 -86 37 -56 39 -62 34 -117 -5 -46 -13 -66 -38 -97 -18 -22 -36
-40 -40 -40 -5 0 -16 -8 -26 -18 -11 -11 -41 -22 -68 -26 -60 -8 -79 8 -109
91 -18 54 -23 58 -55 63 -27 4 -36 10 -38 28 -3 16 -10 22 -28 22 -16 0 -44
21 -87 63 -35 35 -71 66 -80 70 -10 4 -25 20 -35 37 -9 16 -25 33 -35 36 -14
4 -16 9 -7 19 9 11 9 23 0 51 -11 32 -10 39 4 49 22 17 20 61 -4 87 -18 20
-20 20 -54 4 -19 -9 -39 -16 -45 -16 -18 0 -39 -53 -31 -76 4 -11 8 -37 8 -57
0 -19 3 -41 7 -46 3 -6 0 -18 -8 -25 -8 -8 -17 -40 -21 -70 -5 -44 -3 -62 11
-82 13 -21 14 -31 5 -57 -6 -18 -9 -58 -6 -90 3 -31 2 -63 -2 -69 -4 -7 -8
-41 -7 -75 0 -35 -4 -66 -8 -69 -5 -3 -2 -16 7 -30 16 -24 57 -33 68 -15 7 11
115 6 128 -7 6 -6 21 -7 41 -1 17 5 38 7 47 4 8 -2 21 -1 29 4 8 6 23 5 37 -1
16 -7 28 -8 36 -1 18 14 131 10 136 -5 5 -17 27 -15 42 3 16 19 44 19 60 0 8
-9 20 -13 29 -9 24 10 111 4 131 -9 15 -9 23 -7 39 7 14 13 24 16 33 9 7 -6
36 -11 63 -12 182 -6 215 -9 228 -19 11 -10 17 -9 27 3 15 18 101 15 125 -5
13 -11 20 -11 41 0 14 8 49 13 77 12 54 -1 62 -2 137 -3 25 0 54 -6 65 -13 35
-22 72 -28 79 -11 8 21 34 19 81 -6 31 -17 43 -19 57 -10 10 6 33 11 51 11 19
0 37 3 40 6 11 11 241 12 254 2 9 -7 25 -5 50 5 44 17 75 9 103 -26 l19 -22
16 23 c9 12 19 20 23 18 4 -2 27 -1 51 4 29 5 61 4 93 -5 26 -6 48 -9 48 -6 0
3 4 12 9 19 6 10 16 8 46 -9 34 -21 43 -22 91 -11 29 6 65 7 81 3 16 -5 35 -3
45 3 14 8 21 6 31 -8 11 -15 21 -17 50 -12 19 4 37 12 39 18 3 8 10 7 27 -1
20 -11 23 -10 28 8 4 15 10 18 22 13 9 -5 45 -7 81 -5 36 1 75 -3 87 -9 12 -6
30 -7 40 -3 30 12 157 11 170 -2 9 -7 24 -8 50 -2 62 15 201 20 208 8 4 -6 19
-7 35 -4 23 5 30 2 35 -14 3 -12 13 -21 21 -21 16 0 19 16 4 25 -5 3 -10 10
-10 16 0 14 42 11 60 -6 14 -12 23 -12 75 1 33 8 68 19 77 24 42 24 98 -6 98
-53 0 -27 -55 -87 -79 -87 -10 0 -27 -14 -40 -31 -17 -22 -26 -28 -35 -20 -7
6 -15 8 -18 6 -3 -3 -14 -7 -24 -9 -11 -2 -37 -9 -59 -14 -83 -22 -185 10
-169 53 4 8 1 15 -5 15 -6 0 -11 -6 -11 -14 0 -8 -5 -27 -10 -41 l-10 -26 -31
22 c-25 18 -39 21 -79 16 -27 -3 -58 -12 -70 -19 -18 -11 -23 -11 -31 5 -10
17 -13 17 -34 3 -34 -22 -62 -20 -76 6 l-11 21 -18 -23 -18 -23 -25 26 c-30
33 -55 34 -67 5 -5 -13 -9 -17 -9 -10 -1 6 -6 12 -13 12 -6 0 -22 10 -35 22
-19 18 -28 20 -51 12 -15 -5 -28 -18 -30 -30 -2 -17 -10 -20 -62 -19 -32 0
-62 3 -66 8 -13 13 -54 8 -60 -8 -5 -11 -20 -13 -75 -9 -47 4 -74 2 -84 -6
-11 -9 -21 -8 -44 6 -23 14 -34 15 -42 7 -13 -13 -31 -5 -91 40 -29 22 -41 26
-55 18 -10 -6 -12 -11 -5 -11 6 0 12 -7 12 -16 0 -13 -7 -15 -35 -11 -28 5
-37 2 -46 -15 -8 -15 -14 -17 -22 -9 -6 6 -19 11 -29 11 -10 0 -18 5 -18 11 0
6 -9 9 -20 6 -12 -3 -24 1 -29 11 -13 23 -44 -3 -35 -31 4 -14 2 -18 -7 -15
-8 3 -13 12 -11 21 5 27 -18 29 -28 3 -11 -29 -17 -31 -43 -11 -11 8 -42 14
-74 14 -43 0 -60 4 -78 21 -13 12 -26 17 -29 12 -13 -21 -169 -37 -193 -19 -6
4 -14 4 -16 0 -5 -7 -142 -10 -142 -3 0 2 -10 4 -23 5 -13 1 -34 8 -48 15 -21
12 -26 11 -38 -5 -17 -24 -40 -11 -26 15 7 13 7 21 -2 26 -6 4 -14 2 -16 -4
-2 -7 -12 -12 -23 -12 -10 0 -19 -5 -19 -11 0 -6 -9 -9 -20 -6 -11 3 -23 1
-26 -5 -4 -6 -26 -8 -55 -4 -29 4 -50 2 -54 -4 -8 -13 -75 -13 -95 0 -11 7
-20 4 -32 -13 -15 -18 -19 -20 -27 -8 -8 12 -12 12 -25 2 -10 -8 -16 -9 -16
-3 0 6 -21 14 -47 18 -27 4 -58 10 -69 15 -18 6 -21 5 -17 -12 4 -14 0 -19
-15 -19 -12 0 -22 9 -25 21 -5 20 -10 21 -54 14 -63 -10 -78 -9 -113 9 -29 14
-100 12 -100 -3 0 -12 -144 -34 -148 -23 -2 7 -16 9 -34 5 -28 -6 -30 -5 -19
15 7 13 17 19 26 16 17 -7 19 4 6 25 -10 16 -41 8 -41 -11 0 -7 -15 -19 -32
-26 -18 -7 -41 -18 -51 -23 -14 -8 -22 -6 -31 7 -9 12 -19 14 -37 8 -32 -11
-49 -6 -75 17 -21 20 -21 20 -48 -12 -26 -31 -27 -31 -47 -13 -13 12 -23 14
-27 8 -4 -6 -14 -13 -23 -17 -14 -5 -17 -22 -18 -103 -1 -54 -6 -103 -12 -110
-7 -9 -5 -16 8 -24 13 -8 14 -13 6 -16 -15 -7 -17 -48 -4 -72 12 -22 -3 -102
-20 -113 -11 -6 -10 -12 5 -27 13 -15 17 -34 15 -73 -1 -30 1 -62 6 -71 4 -10
3 -18 -3 -18 -17 0 -20 -283 -2 -304 10 -14 8 -69 -5 -118 -4 -15 -2 -41 3
-58 7 -18 7 -30 1 -30 -13 0 -11 -38 2 -42 7 -2 5 -18 -7 -47 -13 -34 -15 -48
-6 -62 14 -22 16 -65 4 -73 -9 -5 -7 -126 2 -200 3 -22 1 -45 -4 -51 -6 -7 -6
-25 1 -48 5 -21 7 -42 4 -47 -11 -19 -16 -306 -5 -334 11 -31 30 -26 30 8 0
12 5 27 10 32 13 13 20 145 8 161 -5 7 -5 14 2 18 5 3 10 14 10 23 0 25 45 63
64 56 9 -3 16 -10 16 -15 0 -11 30 0 52 18 9 8 21 12 27 9 6 -4 19 -1 31 6 16
10 24 10 40 0 17 -10 20 -10 20 4 0 13 3 14 15 4 8 -7 12 -17 8 -23 -6 -10 16
-8 81 9 19 4 26 2 26 -9 0 -8 12 -22 26 -32 28 -18 44 -14 26 8 -19 22 1 71
21 51 3 -3 26 -8 51 -10 49 -4 58 7 34 45 -9 15 -20 18 -52 14 -23 -3 -48 -12
-57 -19 -13 -11 -21 -11 -52 6 -20 11 -39 15 -42 10 -3 -5 -12 -7 -19 -4 -8 3
-17 1 -21 -5 -11 -18 -92 -14 -99 5 -5 12 -13 15 -34 10 -70 -18 -112 1 -112
50 0 12 -9 33 -21 47 -16 22 -18 30 -9 47 7 13 12 86 13 188 1 142 3 171 19
197 10 17 18 38 18 48 0 27 19 20 26 -10 3 -16 13 -53 21 -83 10 -37 14 -90
12 -160 -3 -155 -3 -162 20 -155 14 4 21 0 26 -15 8 -26 21 -26 28 0 6 23 27
27 27 6 0 -18 47 -27 60 -11 12 15 62 7 73 -11 12 -21 55 -17 62 5 6 20 67 36
73 20 2 -5 11 -9 21 -9 9 0 26 -7 39 -15 28 -20 67 -3 59 26 -4 16 -1 18 19
13 16 -4 31 -1 43 10 18 16 20 16 35 -5 14 -20 19 -21 51 -12 29 9 38 8 59 -8
13 -10 29 -19 35 -19 5 0 14 -7 19 -15 11 -21 41 -9 53 21 5 15 17 24 29 24
12 0 18 5 15 10 -3 6 -3 16 2 23 4 6 6 46 4 87 -2 41 -5 91 -5 110 -1 29 -4
35 -21 32 -125 -18 -393 -19 -425 -2 -20 10 -25 10 -35 -3 -13 -19 -129 -21
-157 -4 -12 8 -21 7 -32 -2 -21 -17 -48 -7 -74 29 -13 17 -29 30 -36 30 -7 0
-20 18 -29 40 -12 32 -13 43 -3 53 7 7 11 17 9 23 -5 15 52 11 95 -5 17 -7 32
-18 32 -24 0 -5 9 -2 19 7 11 10 22 13 25 8 9 -15 48 -2 42 14 -3 7 -1 16 5
19 5 4 12 -1 15 -9 10 -27 77 -21 107 10 24 24 28 25 42 10 9 -9 25 -16 35
-16 10 0 20 -10 24 -22 l7 -23 14 26 c22 40 92 48 132 16 9 -6 15 -4 19 7 9
22 23 20 49 -8 26 -29 65 -25 73 6 3 14 11 18 25 14 11 -3 29 0 40 6 16 8 23
7 32 -6 7 -9 17 -16 23 -16 18 0 52 -80 46 -106 -3 -13 -1 -45 4 -71 6 -28 7
-122 3 -226 -5 -154 -8 -180 -23 -191 -10 -7 -18 -18 -18 -25 0 -6 -8 -11 -17
-12 -10 -1 -34 -3 -53 -4 -19 -2 -40 1 -47 6 -6 6 -14 6 -17 1 -8 -14 -167
-11 -172 3 -6 15 -76 13 -81 -2 -2 -6 15 -29 39 -51 36 -34 47 -39 75 -35 37
6 57 -6 80 -50 12 -24 15 -73 16 -253 0 -220 0 -224 -22 -248 -28 -30 -116
-45 -150 -26 -15 8 -26 8 -35 1 -13 -11 -119 -5 -145 8 -9 5 -29 7 -44 4 -15
-3 -34 0 -42 7 -12 10 -18 10 -30 0 -10 -9 -19 -9 -27 -2 -14 11 -189 32 -264
32 -25 0 -64 9 -88 19 -66 31 -71 30 -73 -9 -3 -56 -14 -110 -24 -116 -5 -3
-9 -18 -9 -35 0 -23 4 -29 21 -29 11 0 34 -8 51 -18 28 -16 30 -16 42 1 8 10
20 15 30 11 9 -3 22 -1 29 4 20 17 177 2 203 -19 7 -6 22 -5 38 1 21 8 28 7
33 -5 4 -12 20 -15 67 -14 97 1 108 0 126 -16 10 -9 26 -12 41 -9 13 3 31 5
39 4 8 0 26 -1 40 -1 14 -1 33 -5 42 -10 12 -6 24 -5 36 2 14 9 27 9 49 2 17
-6 36 -7 43 -3 17 11 40 1 40 -16 0 -19 39 -18 46 1 7 18 35 20 52 3 7 -7 45
-13 85 -15 39 -2 73 -7 75 -13 5 -14 35 -13 50 2 10 10 17 10 33 0 15 -9 24
-10 33 -3 7 6 16 8 19 5 7 -7 118 -16 181 -15 22 0 45 -4 53 -11 10 -8 17 -8
25 0 18 18 79 14 113 -6 25 -16 34 -17 60 -6 41 17 242 7 274 -13 15 -10 34
-13 55 -8 53 11 73 8 103 -14 27 -20 34 -21 79 -11 27 6 57 16 66 21 11 6 34
6 60 0 24 -6 71 -7 106 -5 35 3 76 1 92 -5 17 -5 41 -6 57 -2 34 10 69 -2 93
-32 l19 -22 15 21 c13 18 24 20 93 19 43 0 84 -5 91 -9 8 -5 21 -1 33 10 17
15 21 16 37 2 27 -24 54 -29 110 -18 34 6 61 6 77 0 18 -7 32 -6 46 3 17 10
22 9 33 -5 8 -11 26 -18 46 -18 31 0 32 2 27 30 -8 37 1 38 29 2 12 -15 26
-24 30 -20 4 4 -11 25 -34 47 -24 24 -43 35 -45 28 -3 -9 -9 -9 -26 0 -11 7
-31 13 -44 13 -26 0 -24 -8 -26 140 -1 41 -2 86 -2 100 -2 125 1 164 14 179 8
9 13 22 11 29 -1 7 0 8 3 2 2 -5 18 -10 35 -10 28 0 29 2 23 29 -5 23 -2 32
14 40 26 14 60 14 91 -2 17 -8 69 -12 169 -10 81 1 152 -2 163 -8 14 -7 20 -6
24 6 4 10 13 14 23 10 27 -12 101 -16 101 -6 0 15 59 5 81 -15 12 -10 25 -29
30 -42 7 -19 15 -22 44 -19 41 4 55 14 32 23 -13 4 -14 10 -7 24 15 28 12 38
-11 45 -23 8 -41 47 -41 90 1 16 -4 35 -10 42 -7 9 -7 17 2 28 6 8 9 19 5 25
-10 16 -43 12 -54 -7 -9 -16 -11 -16 -28 -1 -12 11 -28 14 -47 11 -18 -4 -31
-1 -37 8 -8 12 -11 11 -20 -3 -5 -10 -21 -18 -34 -18 -13 0 -25 -6 -27 -12 -4
-10 -11 -10 -34 1 -35 17 -57 19 -66 6 -4 -5 -15 -5 -30 3 -43 21 -61 19 -76
-11 -13 -26 -15 -27 -31 -13 -20 18 -47 21 -56 6 -4 -7 -13 -6 -26 1 -15 8
-24 7 -35 -2 -11 -9 -18 -8 -32 5 -10 9 -32 16 -49 16 -49 0 -60 23 -67 134
-4 54 -9 102 -12 107 -4 7 -10 82 -15 199 -1 8 2 57 4 108 5 75 10 97 24 108
10 7 25 10 33 6 8 -4 53 -7 100 -7 47 0 90 -3 97 -8 6 -4 14 -3 18 3 9 15 58
12 81 -5 25 -19 30 -19 55 6 13 13 24 17 32 11 7 -5 29 -12 49 -16 31 -6 39
-3 48 14 13 24 42 26 60 5 7 -8 18 -15 24 -15 6 0 19 -9 29 -20 20 -23 37 -26
37 -6 0 8 12 24 28 36 25 21 27 21 31 3 4 -25 31 -54 43 -47 5 4 8 34 6 67 -3
61 -3 62 27 67 17 3 30 11 29 18 -1 6 -2 20 -2 31 -1 10 -11 21 -23 24 -15 4
-19 12 -17 32 4 35 -23 55 -50 38 -10 -6 -24 -8 -31 -4 -7 5 -25 7 -39 5 -39
-4 -100 -4 -257 2 -77 3 -169 4 -205 4 -141 -4 -171 -3 -181 7 -14 14 -59 4
-59 -13 0 -20 -17 -17 -41 7 l-21 21 -28 -27 c-29 -27 -74 -34 -137 -21 -23 5
-32 3 -36 -8 -8 -21 -43 -20 -59 2 -17 22 -88 27 -88 5 0 -8 -6 -13 -12 -10
-7 2 -20 -1 -28 -8 -16 -13 -60 -4 -60 13 0 5 -20 6 -45 2 -36 -6 -48 -4 -55
9 -6 10 -10 11 -10 4 0 -20 -37 -15 -45 5 -6 16 -7 16 -16 0 -6 -10 -21 -18
-34 -18 -14 0 -25 -4 -25 -9 0 -5 -13 -11 -30 -13 -16 -3 -30 -2 -30 2 0 4
-19 19 -41 34 -49 32 -86 26 -107 -17 -15 -32 -32 -35 -32 -7 0 32 21 67 46
79 20 9 24 18 24 58 0 27 -5 66 -11 88 -6 22 -12 67 -14 100 -2 33 -6 102 -9
153 -3 55 -10 100 -18 109 -7 9 -12 24 -10 33 2 10 -13 29 -35 46 -45 34 -82
75 -83 90 0 6 6 17 14 23 15 13 18 10 71 -51 20 -24 35 -23 35 2 0 25 27 39
67 33 20 -3 33 -12 36 -25 5 -16 9 -18 26 -8 15 8 27 8 42 0 13 -7 25 -8 32
-2 10 8 90 8 123 1 5 -1 18 2 28 6 15 6 23 3 34 -13 15 -23 42 -30 42 -11 0 7
8 9 23 4 12 -4 72 -8 133 -10 62 -1 116 -5 122 -9 12 -7 62 31 62 47 0 7 7 21
15 31 14 19 15 19 35 1 24 -22 25 -31 3 -53 -16 -16 -15 -17 13 -20 16 -1 45
-7 65 -12 33 -9 37 -14 41 -48 3 -20 1 -68 -4 -107 -5 -38 -11 -86 -13 -105
-1 -19 -8 -71 -14 -115 -19 -138 -7 -181 49 -168 38 9 45 19 32 47 -10 24 -10
73 3 189 3 33 0 58 -11 78 -17 34 -14 120 6 144 7 9 13 40 14 70 l0 55 33 -6
c23 -4 34 -2 38 8 4 10 23 14 68 14 63 -1 110 4 227 23 36 6 118 9 184 8 98
-3 120 -6 131 -20 7 -9 16 -17 21 -17 5 0 17 -9 27 -20 13 -16 15 -32 10 -82
-8 -84 -6 -137 8 -171 6 -15 9 -45 6 -67 -4 -29 -1 -43 13 -55 21 -19 57 -16
52 5 -2 7 4 31 13 53 16 40 24 144 12 163 -10 17 -5 118 6 126 7 4 7 11 1 20
-13 17 -10 98 4 107 13 8 24 131 11 131 -5 0 -9 9 -9 20 0 11 7 20 15 20 8 0
15 6 15 14 0 8 6 17 13 19 7 4 6 6 -4 6 -30 2 -42 30 -44 109 -2 42 -4 82 -5
87 -6 26 2 45 18 45 15 0 14 3 -5 18 -21 16 -21 20 -12 102 6 47 15 89 20 94
12 13 12 53 0 60 -5 3 -7 28 -5 55 2 38 -1 55 -16 74 -25 31 -24 36 0 67 25
32 25 48 -1 76 l-20 22 20 42 c11 23 17 48 14 56 -8 20 -40 37 -48 24 -3 -5
-17 -10 -30 -10 -13 0 -25 -5 -27 -12 -5 -13 -90 -19 -98 -7 -9 12 -71 12
-110 0 -32 -10 -37 -9 -57 14 -24 27 -53 33 -53 11 0 -8 -10 -18 -22 -22 -26
-8 -34 -4 -30 13 4 16 -41 40 -46 24 -2 -6 -18 -11 -35 -11 -18 0 -45 -7 -61
-15 -17 -9 -33 -12 -40 -6 -6 4 -31 8 -56 7 -25 -1 -50 2 -57 7 -6 5 -20 3
-32 -4 -17 -11 -23 -10 -41 6 -16 14 -23 16 -32 7 -16 -16 -33 -15 -51 2 -24
25 -87 24 -87 0 0 -11 -5 -14 -17 -9 -10 4 -33 9 -51 12 -18 3 -35 10 -38 14
-9 16 -43 -10 -60 -47 -17 -36 -17 -36 17 -100 19 -36 47 -74 64 -84 16 -11
48 -33 70 -49 22 -16 44 -27 48 -24 10 6 52 -13 79 -35 10 -8 26 -12 38 -9 11
3 20 1 20 -4 0 -13 47 -30 65 -23 8 4 15 12 15 20 0 8 9 23 20 34 11 11 20 25
20 30 0 11 5 12 103 12 57 1 73 -3 104 -25 36 -26 36 -27 34 -89 -4 -88 -46
-178 -100 -214 -43 -28 -63 -31 -129 -16 -44 10 -60 24 -87 78 -8 17 -28 37
-45 44 -17 7 -35 21 -41 31 -7 14 -21 19 -56 19 -49 0 -113 31 -113 55 0 7
-16 19 -35 25 -23 8 -35 18 -35 30 0 11 -10 20 -25 24 -14 4 -25 12 -25 20 0
11 -11 26 -67 88 -7 7 -19 19 -28 26 -8 7 -15 23 -15 36 0 13 -9 34 -19 48
-12 15 -18 33 -15 45 3 12 1 24 -5 27 -6 4 -11 16 -11 27 0 14 -6 19 -17 17
-10 -1 -23 1 -30 5 -6 4 -18 0 -27 -9 -9 -8 -21 -12 -26 -9 -6 4 -17 1 -25 -5
-13 -11 -61 -13 -125 -7 -42 4 -70 25 -70 52 0 14 -4 25 -10 25 -5 0 -10 -10
-10 -23 0 -13 -6 -31 -13 -41 -12 -16 -14 -16 -39 3 -32 25 -96 28 -139 6 -26
-14 -30 -14 -35 0 -6 16 -44 21 -44 6 0 -19 -42 -19 -62 1 -11 11 -21 18 -23
16 -13 -15 -35 -72 -37 -96 -4 -57 137 -195 227 -223 11 -3 34 -13 50 -22 17
-8 51 -16 77 -18 40 -3 49 1 70 25 17 20 35 30 59 31 19 2 42 6 53 10 26 11
45 -3 84 -61 33 -47 34 -52 30 -131 -3 -77 -5 -84 -37 -116 -18 -19 -45 -37
-60 -40 -14 -3 -45 -11 -68 -17 -37 -11 -44 -10 -72 11 -22 16 -35 39 -46 77
-9 30 -14 56 -11 59 14 14 43 -12 56 -49 17 -50 38 -57 106 -37 67 20 94 50
94 105 l0 46 -32 -7 c-18 -4 -38 -11 -43 -15 -6 -5 -50 -9 -98 -9 -48 0 -91
-3 -96 -5 -4 -3 -17 1 -27 9 -10 8 -28 15 -38 15 -66 1 -243 75 -248 103 -3
18 -12 24 -83 58 -19 9 -31 24 -33 39 -5 30 -20 50 -39 50 -7 0 -23 8 -34 19
-16 15 -20 33 -22 97 -1 44 2 89 6 102 7 18 5 22 -13 22 -13 0 -24 -9 -30 -26
-9 -23 -14 -25 -44 -20 -21 4 -36 2 -38 -5 -2 -7 -18 -5 -47 7 -43 17 -45 17
-60 -2 -17 -20 -54 -24 -104 -9 -19 5 -37 3 -53 -6 -20 -10 -29 -10 -44 -1
-11 6 -33 9 -50 6 -19 -4 -30 -2 -30 5 0 6 -7 11 -16 11 -9 0 -28 9 -42 21
l-27 20 -9 -21 c-7 -14 -6 -31 1 -51 9 -23 9 -29 -3 -29 -14 0 -13 -16 8 -113
8 -37 19 -55 53 -82 23 -19 50 -35 59 -35 10 0 26 -5 38 -11 16 -9 24 -7 41 8
37 33 91 60 123 61 16 0 34 2 39 3 6 2 24 0 41 -3 44 -10 66 -59 64 -143 -1
-36 -2 -75 -2 -87 -1 -47 -19 -84 -52 -106 -29 -20 -47 -23 -129 -24 -116 -2
-138 9 -162 82 -12 35 -24 54 -40 60 -12 5 -33 23 -46 42 -40 56 -60 71 -93
70 -27 -1 -36 5 -59 43 -18 28 -33 42 -42 38 -20 -7 -30 23 -15 42 7 8 9 22 5
32 -12 29 -13 67 -1 82 8 10 8 15 -1 18 -7 3 -15 20 -19 39 -3 19 -10 34 -14
34 -4 0 -10 9 -13 21 -8 30 -25 15 -19 -16 4 -24 3 -25 -23 -15 -22 8 -30 8
-36 -2 -6 -10 -15 -9 -40 6 -23 13 -48 19 -82 17 -37 -2 -55 3 -71 17 -21 18
-22 18 -61 -3z m-538 -1101 c18 -14 33 -32 33 -40 0 -7 6 -14 13 -14 7 0 30
-12 51 -27 35 -23 49 -26 123 -26 47 0 89 5 95 11 8 8 17 8 30 1 10 -5 23 -7
28 -4 14 9 50 -13 50 -30 0 -18 12 -19 28 -3 19 19 112 37 139 27 15 -5 32 -4
48 3 18 8 28 8 38 0 10 -9 18 -8 33 3 10 8 29 15 41 15 12 0 25 5 28 10 9 15
43 12 57 -6 7 -8 20 -23 29 -33 13 -15 14 -30 6 -106 -7 -61 -6 -98 1 -117 7
-19 7 -30 0 -34 -7 -4 -8 -29 -5 -64 4 -31 3 -61 -2 -66 -5 -5 -6 -40 -2 -77
7 -75 -3 -63 123 -153 53 -37 77 -13 43 46 -42 75 -46 91 -36 164 10 67 9 72
-12 88 -19 15 -20 20 -9 35 31 46 34 66 17 139 -24 102 0 185 42 143 15 -15
73 -2 73 16 0 19 19 29 33 17 7 -5 33 -21 58 -35 47 -27 61 -28 249 -25 47 0
103 0 125 -2 48 -3 190 6 202 12 4 3 28 4 53 4 42 -2 46 -5 64 -41 22 -46 31
-134 28 -290 -2 -71 -2 -83 -1 -165 1 -75 1 -83 -7 -138 -8 -62 -33 -85 -64
-57 -22 20 -44 11 -37 -16 3 -11 1 -19 -3 -19 -12 0 -56 44 -63 64 -4 9 -18
16 -34 16 l-28 0 23 -18 c18 -14 21 -23 16 -50 -5 -22 -11 -31 -20 -28 -8 3
-26 1 -40 -5 -21 -7 -31 -6 -45 7 -10 9 -22 13 -28 10 -5 -4 -12 -2 -16 4 -9
15 -45 12 -51 -5 -4 -8 -10 -13 -15 -10 -15 10 -59 -7 -59 -21 0 -12 -5 -12
-30 1 -33 17 -80 20 -80 5 0 -16 -14 -12 -40 12 -26 24 -64 26 -90 3 -8 -7
-21 -10 -27 -8 -7 3 -25 -9 -39 -26 -15 -19 -35 -31 -49 -31 -33 0 -38 14 -15
35 11 10 20 22 20 26 0 18 -57 67 -85 73 -39 9 -105 55 -105 72 0 8 -3 14 -7
14 -5 0 -18 3 -30 6 -18 5 -25 1 -33 -21 -6 -17 -16 -25 -24 -22 -9 4 -16 -3
-20 -19 -7 -27 -43 -33 -53 -8 -3 8 -11 13 -18 11 -6 -3 -20 8 -29 24 -26 44
-45 38 -39 -11 5 -36 3 -40 -16 -40 -21 0 -47 21 -67 56 -11 18 -12 18 -31 2
-11 -10 -25 -18 -31 -18 -7 0 -12 -11 -12 -25 0 -21 -5 -25 -32 -25 -18 0 -51
13 -78 30 -41 26 -52 29 -98 23 -29 -3 -52 -9 -52 -14 0 -40 -89 -45 -180 -10
-61 23 -92 15 -116 -31 -17 -33 -50 -37 -59 -7 -5 14 0 27 14 40 12 11 21 24
21 29 0 6 7 10 15 10 8 0 15 4 15 10 0 5 9 18 21 29 19 17 20 27 15 93 -6 77
-7 126 -5 300 1 91 4 109 20 124 11 9 19 25 19 34 0 33 -30 102 -51 119 -14
11 -20 24 -16 34 8 22 14 21 54 -9z m1165 -1049 c26 -4 53 -3 60 1 7 5 27 10
43 10 17 1 65 4 108 7 42 2 80 1 83 -4 7 -12 54 -11 54 1 0 16 47 12 54 -5 7
-18 36 -20 37 -2 0 10 2 10 6 0 7 -18 33 -16 33 2 0 12 8 14 43 9 23 -4 45
-12 49 -18 5 -8 12 -8 25 0 13 8 25 6 53 -10 19 -11 36 -23 38 -27 2 -4 16
-21 33 -38 16 -18 34 -42 38 -54 19 -49 -6 -375 -35 -464 -7 -23 -11 -48 -9
-55 6 -14 -44 -44 -85 -52 -70 -13 -80 -17 -80 -32 0 -13 3 -14 14 -4 12 9 16
5 21 -27 3 -21 8 -49 11 -63 3 -14 5 -32 5 -40 0 -8 0 -67 0 -130 1 -193 0
-201 -16 -251 -11 -33 -22 -49 -34 -49 -9 0 -22 -5 -28 -11 -5 -5 -34 -13 -64
-15 -30 -3 -60 -7 -67 -9 -7 -3 -27 4 -45 14 -24 14 -38 16 -51 9 -10 -6 -38
-7 -69 -2 -29 4 -74 7 -100 5 -26 -2 -54 2 -61 8 -9 7 -40 10 -80 8 -36 -2
-70 1 -75 6 -7 7 -15 6 -25 -2 -11 -9 -20 -10 -34 -2 -15 8 -29 7 -55 -4 -31
-13 -37 -12 -71 5 -20 11 -45 20 -55 20 -56 0 -78 38 -85 141 -3 50 0 85 10
108 16 39 47 231 39 239 -6 6 35 52 46 52 4 0 16 -15 27 -32 22 -37 37 -183
23 -221 -5 -12 -12 -45 -16 -74 l-7 -52 50 6 c33 3 52 2 57 -6 5 -9 10 -9 20
-1 10 8 19 8 35 -2 15 -10 22 -10 28 -1 5 8 21 9 57 2 27 -5 64 -6 82 -3 22 4
33 2 33 -5 0 -8 23 -11 74 -9 64 3 79 0 105 -20 17 -12 34 -22 40 -22 8 0 23
24 25 42 2 16 16 20 16 4 0 -25 26 -30 66 -11 20 9 46 14 59 11 38 -10 47 14
43 108 -5 93 -18 122 -48 106 -11 -6 -21 -6 -24 -1 -3 5 -26 6 -52 3 -29 -3
-49 -1 -53 6 -5 8 -23 9 -61 3 -30 -5 -97 -8 -148 -7 -51 2 -95 -1 -98 -5 -2
-4 -24 -6 -49 -4 -25 1 -45 -1 -45 -5 0 -4 -12 -6 -27 -5 -16 1 -40 3 -55 3
-24 2 -28 6 -28 33 0 17 -4 38 -9 47 -5 9 -6 32 -4 50 l5 32 67 -5 c63 -5 67
-4 78 20 10 22 8 27 -10 40 -12 8 -28 15 -37 15 -38 1 -81 61 -73 101 3 16 1
35 -5 42 -7 9 -8 25 -1 52 5 22 11 96 14 165 2 69 9 138 15 155 6 16 10 43 9
60 -2 38 5 55 44 99 19 21 35 32 42 26 5 -4 31 -11 57 -15z m1128 -24 c0 -14
52 -20 72 -8 13 9 23 9 36 1 10 -6 32 -15 49 -18 25 -6 32 -4 37 11 5 15 14
18 42 15 19 -2 38 -11 41 -18 7 -18 30 -18 40 0 11 19 84 26 109 9 18 -11 23
-11 34 2 7 9 21 13 34 10 11 -3 50 -9 85 -13 l63 -7 4 -43 c2 -24 9 -52 15
-63 6 -13 7 -25 1 -32 -13 -17 -24 -146 -27 -327 -2 -114 -7 -169 -20 -207
-17 -52 -17 -53 6 -90 13 -21 25 -49 26 -63 1 -14 3 -55 6 -91 2 -36 7 -71 11
-78 4 -6 3 -18 -3 -25 -7 -8 -8 -49 -3 -119 l7 -106 -45 -50 c-35 -39 -49 -48
-58 -39 -15 15 -216 13 -274 -3 -24 -6 -89 -13 -146 -14 -58 -2 -108 -8 -116
-14 -21 -17 -96 8 -109 36 -5 13 -23 25 -41 29 -45 10 -148 56 -170 76 -11 10
-29 21 -40 24 -48 15 -53 28 -49 131 2 56 8 100 15 104 6 4 8 17 5 28 -4 15 2
29 18 44 13 12 25 33 27 47 2 17 15 31 40 45 21 11 38 24 38 28 0 23 36 41 87
44 45 3 54 1 50 -11 -9 -22 5 -28 19 -8 12 15 15 15 24 2 8 -12 12 -13 19 -2
7 12 12 12 31 0 18 -10 24 -10 27 0 5 14 53 17 53 2 0 -5 9 -10 20 -10 11 0
20 -7 20 -15 0 -23 38 -18 66 10 30 31 58 32 78 4 16 -24 56 -19 56 7 0 11 6
13 20 9 11 -4 20 -2 20 4 0 6 -9 11 -20 11 -10 0 -24 8 -30 18 -8 12 -13 13
-16 5 -8 -19 -18 -16 -45 11 -13 13 -38 27 -55 30 -27 6 -32 4 -37 -14 -5 -18
-10 -20 -29 -14 -13 5 -42 9 -66 9 -25 0 -46 6 -51 14 -12 19 -45 6 -37 -15 4
-11 1 -14 -13 -9 -36 11 -98 13 -145 4 -50 -9 -82 2 -73 25 2 6 -1 44 -8 85
-11 61 -11 81 0 115 18 56 35 203 29 247 -3 21 -1 40 5 44 6 3 11 17 11 31 0
13 6 43 13 65 10 34 16 40 34 36 18 -3 23 1 25 22 3 24 7 26 56 27 29 1 56 5
59 8 10 9 43 7 43 -3z m1510 -731 c0 -5 -4 -10 -10 -10 -5 0 -10 5 -10 10 0 6
5 10 10 10 6 0 10 -4 10 -10z"/>
<path d="M2280 4033 c1 -15 39 -58 46 -51 8 9 -22 58 -36 58 -6 0 -10 -3 -10
-7z"/>
<path d="M2035 3977 c-13 -20 -14 -37 -6 -108 5 -46 7 -96 4 -110 -11 -58 46
-42 134 38 20 18 51 39 69 48 19 9 34 20 34 24 0 5 9 11 20 14 32 8 37 37 11
59 -13 10 -30 18 -38 18 -8 0 -26 9 -40 20 -31 24 -48 25 -87 5 -16 -9 -32
-12 -35 -7 -3 5 -16 12 -28 16 -17 5 -26 1 -38 -17z"/>
<path d="M2558 3992 c-1 -4 -30 -19 -63 -33 -66 -29 -78 -54 -36 -75 13 -7 26
-17 30 -22 8 -12 99 -82 107 -82 4 0 22 -14 41 -31 52 -45 65 -37 70 46 2 39
4 79 4 90 -1 11 -1 41 -1 68 1 35 -3 47 -14 47 -8 0 -18 -5 -21 -10 -6 -10
-49 -7 -97 6 -9 3 -18 1 -20 -4z"/>
<path d="M3381 3976 c-17 -20 -2 -44 52 -89 39 -32 47 -35 57 -22 7 8 19 15
26 15 8 0 14 5 14 11 0 5 14 15 30 20 17 6 30 17 30 24 0 18 -47 25 -82 13
-21 -8 -33 -7 -41 1 -6 6 -21 11 -34 11 -14 0 -23 6 -23 15 0 19 -14 19 -29 1z"/>
<path d="M3170 3962 c0 -7 -8 -12 -19 -12 -26 0 -47 -53 -33 -84 5 -12 8 -47
4 -77 -3 -30 -5 -75 -4 -101 1 -39 -2 -50 -23 -66 -14 -11 -25 -22 -25 -25 0
-9 61 -14 66 -5 3 4 23 8 44 8 36 0 46 7 114 75 41 41 80 75 86 75 6 0 15 11
20 25 5 14 14 25 20 25 17 0 11 40 -7 47 -10 4 -24 14 -30 24 -13 17 -87 60
-101 58 -35 -6 -74 4 -92 23 -11 12 -20 16 -20 10z"/>
<path d="M3695 3954 c-16 -8 -43 -28 -58 -44 -15 -17 -34 -30 -41 -30 -14 0
-76 -61 -76 -76 0 -9 33 -44 100 -106 79 -74 134 -90 146 -43 3 14 3 33 -1 42
-12 32 -15 112 -5 138 7 18 5 41 -7 80 -10 30 -20 55 -23 55 -3 0 -18 -7 -35
-16z"/>
<path d="M2338 3857 c-7 -8 -23 -19 -34 -25 -12 -6 -40 -26 -62 -44 -23 -18
-55 -43 -72 -56 -36 -28 -39 -52 -7 -52 12 0 34 -6 49 -14 21 -11 36 -12 69
-4 30 8 47 8 60 0 23 -14 105 -5 136 16 15 9 34 12 55 8 66 -13 73 -12 76 11
3 17 -3 24 -23 29 -14 3 -30 14 -35 23 -8 16 -25 29 -131 98 -40 26 -62 29
-81 10z"/>
<path d="M3434 3746 c-16 -17 -41 -41 -54 -53 -49 -44 -80 -78 -80 -89 0 -24
136 -31 195 -9 22 8 54 14 70 15 51 1 61 13 34 44 -13 15 -38 36 -56 47 -18
11 -34 28 -37 37 -3 9 -14 22 -24 28 -15 10 -23 6 -48 -20z"/>
<path d="M2085 3660 c-3 -5 -1 -10 4 -10 6 0 11 5 11 10 0 6 -2 10 -4 10 -3 0
-8 -4 -11 -10z"/>
<path d="M3165 3058 c-30 -16 -43 -18 -57 -9 -36 22 -44 14 -46 -51 -2 -35 -7
-67 -12 -72 -6 -6 -5 -14 1 -23 8 -9 8 -21 0 -40 -6 -16 -11 -50 -13 -77 -2
-41 2 -51 23 -67 13 -10 31 -16 41 -13 9 3 19 0 23 -6 3 -6 10 -8 14 -6 17 11
116 14 128 5 15 -13 33 -3 33 17 0 17 2 17 52 2 33 -10 41 -9 48 3 8 11 13 12
30 1 16 -10 34 -9 96 4 71 14 77 14 96 -2 16 -15 22 -16 39 -5 12 7 33 10 50
6 27 -6 29 -5 29 25 0 17 7 44 15 60 8 16 15 39 15 52 2 69 -2 174 -7 182 -3
5 -46 6 -98 2 -77 -5 -94 -4 -99 9 -4 11 -11 13 -29 6 -40 -15 -134 -16 -151
-2 -12 10 -20 11 -29 2 -10 -8 -22 -7 -46 2 -26 10 -33 9 -41 -2 -7 -12 -12
-12 -34 2 -14 9 -27 17 -28 16 -2 -1 -21 -10 -43 -21z"/>
<path d="M3320 2561 c0 -11 42 -43 48 -37 5 5 -30 46 -40 46 -5 0 -8 -4 -8 -9z"/>
<path d="M3088 2525 c-3 -26 -1 -32 9 -24 15 13 33 3 33 -17 0 -19 10 -18 26
4 21 27 17 39 -18 56 -43 22 -45 21 -50 -19z"/>
<path d="M3590 2534 c0 -7 -7 -14 -16 -16 -12 -2 -10 -8 10 -25 19 -17 26 -19
26 -8 0 8 7 18 17 23 9 6 14 16 10 25 -7 18 -47 19 -47 1z"/>
<path d="M3464 2526 c-15 -12 -17 -17 -6 -28 11 -11 14 -10 22 2 9 14 14 40 7
40 -2 0 -12 -6 -23 -14z"/>
<path d="M3415 2520 c-3 -5 -1 -10 4 -10 6 0 11 5 11 10 0 6 -2 10 -4 10 -3 0
-8 -4 -11 -10z"/>
<path d="M4591 3056 c-8 -10 -9 -16 -1 -21 18 -11 11 -25 -12 -24 -30 1 -118
-10 -140 -17 -11 -3 -20 1 -24 11 -5 13 -15 15 -48 9 -63 -11 -126 -12 -132
-2 -3 5 -18 6 -33 3 -16 -3 -39 1 -57 10 -29 15 -29 14 -32 -13 -2 -15 -9 -33
-15 -40 -6 -8 -10 -42 -9 -75 1 -34 -2 -84 -7 -112 -14 -75 -4 -85 77 -85 38
0 73 -5 79 -11 8 -8 17 -8 33 1 23 13 86 6 107 -12 7 -5 17 -7 22 -4 5 4 14
-1 19 -10 7 -12 14 -14 28 -7 23 11 108 6 112 -7 6 -16 30 -11 41 8 8 14 13
15 30 5 25 -16 67 -17 76 -2 5 7 14 4 26 -7 14 -13 23 -14 30 -7 12 12 31 212
21 227 -3 6 -8 40 -10 76 -4 66 -20 99 -42 85 -7 -4 -30 -9 -51 -10 -32 -3
-39 0 -39 15 0 10 -7 21 -16 24 -21 8 -20 8 -33 -8z"/>
<path d="M4282 2560 c-8 -13 -8 -20 -2 -20 6 0 13 7 17 15 9 24 -1 27 -15 5z"/>
<path d="M4628 2480 c-8 -24 22 -51 44 -39 22 12 15 29 -12 29 -10 0 -20 6
-22 13 -4 9 -6 8 -10 -3z"/>
<path d="M4484 2280 c-6 -6 -65 -13 -139 -15 -85 -3 -131 -9 -136 -17 -6 -9
-11 -9 -23 1 -12 10 -29 11 -63 5 -27 -5 -55 -9 -63 -9 -26 -2 -60 -25 -60
-41 0 -9 -8 -29 -17 -45 -15 -26 -16 -31 -3 -39 8 -5 17 -7 21 -4 4 2 9 -3 13
-11 3 -9 18 -15 36 -15 16 0 30 -4 30 -10 0 -5 6 -10 14 -10 8 0 28 -11 44
-25 17 -14 34 -25 40 -25 5 0 15 -7 22 -15 15 -18 30 -11 30 16 0 29 28 23 62
-13 26 -28 32 -30 42 -17 11 14 21 16 107 22 27 1 45 9 55 22 14 18 16 18 43
2 28 -17 29 -16 60 15 22 23 34 28 43 21 22 -18 78 -26 93 -13 10 8 19 8 34 1
11 -6 22 -7 25 -3 2 4 4 52 3 105 -3 107 -10 122 -56 106 -26 -9 -184 2 -226
15 -11 4 -25 2 -31 -4z"/>
<path d="M3355 5070 c-11 -18 5 -29 45 -28 26 0 40 5 40 13 0 23 -72 36 -85
15z"/>
<path d="M2282 5058 c-14 -14 -16 -54 -3 -63 11 -6 81 25 81 37 0 4 10 8 21 8
17 0 19 3 10 13 -14 17 -93 21 -109 5z"/>
<path d="M5184 4985 c-9 -14 -25 -25 -35 -25 -11 0 -19 -5 -19 -11 0 -7 14 -8
43 -4 23 4 53 8 67 9 36 2 31 27 -7 43 -31 12 -34 11 -49 -12z"/>
<path d="M2437 4900 c-14 -11 -32 -20 -40 -20 -9 0 -19 -5 -22 -10 -4 -6 -22
-9 -42 -5 -57 9 -72 0 -64 -38 5 -25 12 -33 34 -35 27 -3 87 17 87 29 0 4 9 9
20 12 11 3 23 13 26 24 4 10 14 26 22 36 22 25 9 30 -21 7z"/>
<path d="M3327 4898 c-7 -4 -37 -5 -68 -1 -52 5 -56 4 -62 -17 -3 -12 -3 -28
-1 -35 8 -21 61 -38 96 -31 18 3 53 8 77 9 32 3 50 10 63 27 32 39 20 55 -41
55 -29 0 -58 -3 -64 -7z"/>
<path d="M5295 4880 c-16 -11 -35 -18 -42 -16 -6 3 -28 -6 -48 -20 -20 -13
-42 -24 -50 -24 -21 0 -27 -17 -15 -41 7 -13 18 -19 29 -16 10 2 29 -2 42 -9
34 -19 36 -18 74 20 30 31 65 93 65 117 0 15 -23 10 -55 -11z"/>
<path d="M3840 4410 c-17 -13 -20 -20 -10 -20 22 0 43 16 39 28 -3 7 -14 3
-29 -8z"/>
<path d="M3725 4400 c3 -5 8 -10 11 -10 2 0 4 5 4 10 0 6 -5 10 -11 10 -5 0
-7 -4 -4 -10z"/>
<path d="M4360 4379 c0 -5 5 -7 10 -4 6 3 10 8 10 11 0 2 -4 4 -10 4 -5 0 -10
-5 -10 -11z"/>
<path d="M5390 4012 c-24 -2 -50 -8 -57 -14 -7 -5 -21 -7 -32 -3 -25 8 -81
-31 -81 -56 0 -10 -5 -21 -10 -24 -6 -4 -8 -21 -6 -38 11 -66 14 -174 7 -240
-4 -38 -5 -82 -3 -97 4 -26 8 -29 66 -37 33 -5 124 -9 201 -8 l140 0 -3 35
c-2 19 -10 50 -18 68 -17 37 -11 68 19 92 16 14 18 20 8 38 -6 12 -18 22 -25
22 -15 0 -29 27 -21 39 2 5 0 35 -5 67 -10 61 -4 124 11 124 5 0 9 -7 9 -15 0
-9 9 -15 25 -15 33 0 32 25 -2 47 -27 18 -107 23 -223 15z"/>
<path d="M4297 3936 c-9 -7 -17 -17 -17 -21 0 -15 55 -59 70 -57 9 1 25 -5 36
-15 29 -26 83 -53 104 -53 11 0 24 9 30 21 10 17 7 25 -19 50 -24 23 -36 27
-60 23 -24 -5 -40 1 -78 29 -41 30 -51 33 -66 23z"/>
<path d="M4570 3919 c0 -5 5 -7 10 -4 6 3 10 8 10 11 0 2 -4 4 -10 4 -5 0 -10
-5 -10 -11z"/>
<path d="M4789 3905 c-1 -5 -1 -17 0 -27 3 -24 -18 -32 -37 -15 -46 40 -58 39
-115 -3 -29 -22 -63 -53 -75 -70 l-22 -29 63 -37 c34 -20 64 -39 67 -43 3 -3
22 -14 42 -25 20 -10 47 -29 59 -42 22 -23 67 -35 54 -14 -4 6 -1 26 5 44 8
27 8 39 -1 55 -11 16 -10 25 0 45 8 14 11 35 7 50 -3 14 -2 26 3 26 5 0 11 14
13 30 5 32 -13 57 -33 45 -6 -4 -15 -1 -20 6 -5 8 -9 10 -10 4z"/>
<path d="M4145 3890 c-11 -17 14 -245 32 -292 21 -58 40 -61 78 -15 15 17 38
39 51 47 12 9 40 31 61 51 21 19 46 38 56 42 9 3 17 10 17 15 0 20 -43 52 -96
72 -32 11 -63 28 -69 37 -6 8 -20 17 -31 18 -33 4 -64 17 -64 26 0 12 -27 11
-35 -1z"/>
<path d="M4473 3710 c-3 -10 -15 -22 -27 -26 -11 -4 -38 -24 -58 -45 -21 -22
-42 -39 -47 -39 -5 0 -13 -10 -16 -21 -10 -30 11 -41 66 -33 26 3 72 1 104 -5
40 -8 63 -8 77 0 13 7 34 7 69 0 38 -8 54 -8 70 2 17 10 22 9 33 -5 19 -26 27
-10 11 22 -18 35 -62 70 -87 70 -10 0 -21 7 -25 15 -5 14 -138 85 -158 85 -4
0 -9 -9 -12 -20z"/>
<path d="M5774 3625 c-9 -34 3 -75 22 -75 11 0 13 -6 9 -20 -4 -11 0 -34 8
-50 9 -17 11 -32 6 -36 -14 -8 -11 -47 4 -40 6 3 20 9 30 12 18 7 22 16 10 28
-7 7 -12 48 -13 110 0 16 4 34 10 40 16 16 11 36 -9 36 -11 0 -23 5 -26 10
-12 20 -45 10 -51 -15z"/>
<path d="M2446 3266 c3 -9 11 -16 16 -16 13 0 5 23 -10 28 -7 2 -10 -2 -6 -12z"/>
<path d="M5812 3088 c-14 -14 -16 -28 -3 -28 9 0 24 30 18 36 -2 2 -9 -2 -15
-8z"/>
<path d="M5665 3010 c-4 -6 -1 -18 6 -26 14 -17 31 0 22 23 -6 16 -19 17 -28
3z"/>
<path d="M5290 3003 c-14 -3 -29 -11 -33 -19 -4 -8 -18 -14 -30 -14 -13 0 -28
-5 -35 -12 -9 -9 -15 -8 -25 7 -9 12 -16 14 -21 7 -4 -6 -13 -9 -20 -6 -10 4
-15 -10 -19 -53 -2 -32 -1 -62 3 -66 4 -5 5 -39 2 -76 -4 -65 -3 -69 23 -89
16 -13 36 -20 45 -17 10 3 23 -1 30 -10 8 -10 16 -12 24 -6 7 6 46 11 87 12
40 1 94 5 119 9 25 5 49 5 55 1 16 -13 84 -21 90 -11 3 5 27 6 54 3 45 -5 50
-4 57 18 9 25 7 269 -2 278 -3 3 -13 -5 -23 -18 -17 -23 -19 -23 -39 -6 -20
18 -82 27 -82 13 0 -14 -34 -8 -70 11 -31 17 -38 17 -62 5 -32 -16 -63 -4 -71
28 -5 18 -11 19 -57 11z"/>
<path d="M5815 3000 c3 -5 10 -10 16 -10 5 0 9 5 9 10 0 6 -7 10 -16 10 -8 0
-12 -4 -9 -10z"/>
<path d="M5820 2886 c0 -22 3 -27 11 -19 8 8 8 16 0 30 -9 16 -10 14 -11 -11z"/>
<path d="M2353 2709 c-9 -9 -3 -18 23 -35 44 -30 46 -30 38 4 -10 40 -38 54
-61 31z"/>
<path d="M2249 2489 c-25 -20 -28 -20 -79 -5 -37 11 -57 13 -65 6 -14 -12 -46
-13 -123 -4 -68 8 -93 -8 -110 -70 -17 -66 -15 -116 6 -132 24 -18 49 -17 56
2 6 15 8 15 26 -1 17 -15 24 -16 46 -6 29 13 48 6 40 -15 -4 -10 2 -14 20 -14
14 0 38 -9 53 -21 34 -25 64 -22 69 6 6 29 19 40 34 27 9 -7 19 -7 28 -2 8 5
17 6 20 2 3 -4 23 -16 45 -27 33 -17 44 -19 65 -9 49 23 70 26 70 10 0 -26 37
-29 69 -5 28 21 29 23 30 115 l0 94 -33 25 c-25 19 -41 24 -60 19 -16 -4 -26
-2 -26 5 0 7 -22 10 -57 9 -32 0 -67 2 -78 5 -13 4 -30 -1 -46 -14z"/>
<path d="M1542 2459 c2 -6 8 -10 13 -10 5 0 11 4 13 10 2 6 -4 11 -13 11 -9 0
-15 -5 -13 -11z"/>
<path d="M1710 2280 c0 -5 5 -10 11 -10 5 0 7 5 4 10 -3 6 -8 10 -11 10 -2 0
-4 -4 -4 -10z"/>
<path d="M5267 2127 c-37 -22 -38 -22 -52 -3 -12 16 -18 17 -27 8 -7 -7 -20
-12 -30 -12 -10 0 -18 -4 -18 -10 0 -5 -7 -10 -15 -10 -8 0 -15 7 -15 15 0 8
-6 15 -14 15 -10 0 -16 -16 -20 -52 -13 -114 26 -165 114 -148 26 5 66 4 94
-1 26 -5 52 -7 56 -4 5 3 12 0 16 -6 4 -7 23 -9 54 -5 38 5 49 3 54 -9 3 -8
17 -15 31 -15 14 0 25 -4 25 -8 0 -5 17 -14 38 -21 53 -18 92 -2 92 38 0 16 5
33 10 36 6 3 10 42 10 86 0 84 2 81 -55 83 -11 1 -24 11 -30 24 -15 34 -51 26
-48 -11 1 -15 -2 -27 -7 -27 -23 0 -60 21 -60 35 0 18 -12 19 -28 3 -10 -10
-17 -10 -32 0 -16 10 -21 9 -30 -8 -14 -27 -30 -25 -55 5 l-20 24 -38 -22z"/>
<path d="M5760 1960 c0 -5 7 -10 16 -10 8 0 12 5 9 10 -3 6 -10 10 -16 10 -5
0 -9 -4 -9 -10z"/>
<path d="M5731 1782 c-24 -45 -7 -86 23 -56 20 19 20 35 2 59 -13 18 -14 18
-25 -3z"/>
<path d="M5195 1761 c-6 -11 1 -16 40 -25 29 -7 29 -7 11 13 -20 22 -41 27
-51 12z"/>
<path d="M5454 1739 c-10 -17 13 -36 27 -22 12 12 4 33 -11 33 -5 0 -12 -5
-16 -11z"/>
<path d="M4275 1630 c-3 -5 -1 -10 4 -10 6 0 11 5 11 10 0 6 -2 10 -4 10 -3 0
-8 -4 -11 -10z"/>
</g>
</svg>
